<svg xmlns="http://www.w3.org/2000/svg" viewBox="0 0 42.79 42.79"><defs><style>.cls-1{fill:#fff;}</style></defs><g id="Layer_2" data-name="Layer 2"><g id="Layer_1-2" data-name="Layer 1"><path d="M0,21.27A21.4,21.4,0,1,1,21.27,42.79,21.33,21.33,0,0,1,0,21.27Zm38.68.13A17.29,17.29,0,1,0,21.53,38.67,17.25,17.25,0,0,0,38.68,21.4Z"/><path class="cls-1" d="M38.68,21.4A17.29,17.29,0,1,1,21.43,4.11,17.25,17.25,0,0,1,38.68,21.4ZM21.34,33.85a13.56,13.56,0,0,0,10.32-4.72,2,2,0,0,0-.07-3.08,2.12,2.12,0,0,0-3,.33c-4.37,4.47-10,4.48-14.39.05a2.85,2.85,0,0,0-1.34-.8,1.81,1.81,0,0,0-2.1,1,2,2,0,0,0,.32,2.49A13.71,13.71,0,0,0,21.34,33.85Zm6.93-19c-2.09,0-4.36,1.32-4.88,3a4.07,4.07,0,0,0,.22,1.65c.51-.11,1.15-.07,1.52-.36,2.14-1.75,4.2-1.79,6.31,0,.51.43,1.11.84,1.59.27a2,2,0,0,0,.16-1.62C32.58,16.06,30.36,14.8,28.27,14.82Zm-13.8-.29a2.7,2.7,0,0,0-2.73,2.73,2.73,2.73,0,0,0,5.46,0v0A2.67,2.67,0,0,0,14.47,14.53Z"/><path d="M21.34,33.85a13.71,13.71,0,0,1-10.25-4.76,2,2,0,0,1-.32-2.49,1.83,1.83,0,0,1,2.1-1,3,3,0,0,1,1.35.8c4.36,4.43,10,4.42,14.38-.05a2.12,2.12,0,0,1,3-.33,2,2,0,0,1,.07,3.08A13.56,13.56,0,0,1,21.34,33.85Z"/><path d="M28.27,14.82c2.09,0,4.31,1.24,4.92,2.92A2,2,0,0,1,33,19.36c-.48.57-1.08.16-1.59-.27-2.11-1.8-4.17-1.76-6.31,0-.37.29-1.19.69-1.52.36a1.55,1.55,0,0,1-.22-1.66C23.91,16.14,26.18,14.83,28.27,14.82Z"/><path d="M14.47,14.53a2.67,2.67,0,0,1,2.73,2.71A2.71,2.71,0,0,1,14.52,20h0a2.74,2.74,0,0,1-2.74-2.73A2.7,2.7,0,0,1,14.47,14.53Z"/></g></g></svg>